<?xml version="1.0" encoding="UTF-8"?>
<svg id="Layer_1" xmlns="http://www.w3.org/2000/svg" version="1.1" viewBox="0 0 855 214.5097303">
  <!-- Generator: Adobe Illustrator 29.2.1, SVG Export Plug-In . SVG Version: 2.1.0 Build 116)  -->
  <defs>
    <style>
      .st0 {
        fill: #0692ce;
      }

      .st1 {
        fill: #f48026;
      }

      .st2 {
        fill: #84c342;
      }

      .st3 {
        fill: #46388e;
      }
    </style>
  </defs>
  <g>
    <path d="M265.3697349,108.5383587c0-27.2023366,20.5998373-45.821416,47.2739509-45.821416,19.5434116,0,30.8997358,10.6960682,37.1061107,21.6562277l-16.2421569,7.9230112c-3.6973891-7.1307121-11.7524586-12.9409224-20.8639135-12.9409224-16.110139,0-27.7305393,12.4127196-27.7305393,29.1830894s11.7524586,29.1830894,27.7305393,29.1830894c9.1114549,0,17.1665243-5.5461038,20.8639135-12.9409224l16.2421569,7.7909631c-6.3383929,11.0922177-17.5626588,21.788291-37.1061107,21.788291-26.6741137,0-47.2739509-18.6190643-47.2739509-45.821411Z"/>
    <path d="M393.5904748,121.3472329h-13.8652697v31.5599968h-18.8831607v-88.8697801h41.4637508c18.4870262,0,29.8433101,12.1486132,29.8433101,28.6548866,0,15.7139743-9.903764,24.0331301-19.4113937,26.2779893l19.939546,33.8048459h-21.6562227l-17.4305602-31.4279385ZM399.6647915,80.6757711h-19.8075281v23.9010819h19.8075281c7.5268768,0,13.337077-4.4897084,13.337077-12.016565s-5.8102405-11.8845169-13.337077-11.8845169Z"/>
    <path d="M488.4025335,62.5848995c26.8061719,0,46.3495835,19.1472772,46.3495835,45.821421s-19.5434116,45.821411-46.3495835,45.821411c-26.674154,0-46.2175656-19.1472772-46.2175656-45.821411s19.5434116-45.821421,46.2175656-45.821421ZM488.4025335,79.3552693c-16.3742555,0-26.8061719,12.5447678-26.8061719,29.1830894,0,16.5062734,10.564015,29.1830894,26.8061719,29.1830894,16.3742555,0,26.9382704-12.676816,26.9382704-29.1830894.1320179-16.6383216-10.5640956-29.1830894-26.9382704-29.1830894Z"/>
    <path d="M543.8636122,108.5383587c0-27.2023366,20.599797-45.821416,47.2739509-45.821416,19.5434116,0,30.8997761,10.6960682,37.1060704,21.6562277l-16.2421569,7.9230112c-3.6973891-7.1307121-11.7524989-12.9409224-20.8639135-12.9409224-16.110139,0-27.7305393,12.4127196-27.7305393,29.1830894s11.7524989,29.1830894,27.7305393,29.1830894c9.1114952,0,17.1665243-5.5461038,20.8639135-12.9409224l16.2421569,7.7909631c-6.3383929,11.0922177-17.5626588,21.788291-37.1060704,21.788291-26.674154,0-47.2739509-18.6190643-47.2739509-45.821411Z"/>
    <path d="M639.4678994,64.0374496h19.1472772v52.6880267c0,12.4127196,7.1307424,20.8639336,20.8639135,20.8639336s20.7318955-8.451214,20.7318955-20.8639336v-52.6880267h19.2792951v53.2162295c0,22.0523772-13.0730008,37.1061107-40.0111906,37.1061107s-40.0111906-15.1857715-40.0111906-36.9740524v-53.3482878Z"/>
    <path d="M741.2786422,125.9689894c6.2063749,6.4704612,15.9780404,12.016565,28.2587723,12.016565,10.431997,0,15.449888-4.7538047,15.449888-9.903764,0-6.4704612-8.1871277-8.3191658-17.9587932-10.8281113-14.5255206-3.3012547-33.1445648-7.2627603-33.1445648-27.466443,0-14.7896169,12.8088843-26.9382402,33.6727978-26.9382402,14.1293862,0,25.7497865,4.225602,34.5971652,12.4127196l-10.5641762,13.8652697c-7.1307424-6.6025094-16.7703899-9.7717159-25.7497865-9.7717159-8.0550292,0-12.6767857,3.565351-12.6767857,8.8473585,0,5.6781621,8.0550292,7.5268566,17.6947573,9.903764,14.6575386,3.4333029,33.2766633,7.7909631,33.2766633,27.8625875,0,16.2421771-11.6204004,28.5228485-35.5215326,28.5228485-17.0345064,0-29.3151577-5.6781621-37.5022854-14.129366l10.1678805-14.3934724Z"/>
  </g>
  <g>
    <g>
      <path class="st3" d="M143.5595925,115.7779954h0l6.1426886,17.7656243,6.2029147-17.7656243h-.0602261c.7828938-1.9271167,1.2044491-9.2140375,1.2044491-11.6831527,0-6.8051393-3.312235-7.4675854-7.3471377-7.4675854s-7.3471377.6022246-7.3471377,7.4675854c0,2.4691152.4215645,9.6958098,1.2044491,11.6831527Z"/>
      <circle class="st3" cx="149.7022903" cy="86.0281061" r="6.8653585"/>
    </g>
    <g>
      <path class="st2" d="M245.5764281,125.9555958c-10.4184774-6.7449132-24.2696421-9.0935944-38.6025975-6.0824717-2.7100105.6022246-5.2995687,1.144223-7.7084669,1.7464475-28.6658924,19.9336364-47.7564089,24.3298683-48.960858,24.5707636,1.4453353.6022246,28.4249971,11.924048,75.27806,1.9873429,20.9574255-4.3962411,28.1841201-16.9225136,19.9938625-22.2220823Z"/>
      <path class="st1" d="M199.2653637,121.6797978c4.9382487-3.4326781,10.2378174-7.3471377,15.7180645-11.8036049,16.7418352-13.4898309,19.5120718-25.4138743,11.1411542-24.8718759-10.6593819.7226676-23.1254192,6.1426886-34.5676857,15.2965046-7.4675808,6.0222501-13.6102786,11.4422711-18.608735,16.2600675-7.7084761,11.7433788-14.2125031,19.9336364-18.2474058,24.6309805,5.7813502-4.9984564,18.4882919-13.068271,44.5646077-19.5120718Z"/>
      <path class="st1" d="M150.1840626,146.3107784h.0602261q0-.0602169-.0602261,0c.0602261-.0602169,0,0,0,0Z"/>
      <path class="st3" d="M154.7007467,141.3123219c-2.6497844,3.1315658-4.275798,4.8177964-4.456458,4.9382395h.0602261c1.2044491-.2408861,20.2949656-4.6973534,48.9608672-24.5707636-26.0763342,6.4438009-38.7832759,14.5136154-44.5646353,19.6325241Z"/>
      <path class="st0" d="M150.1840626,146.2505614h0c.2408861-.963563,3.0111228-10.6593728,22.7038638-29.6294462,5.4200118-8.1902576,11.3820496-18.1269581,17.6451812-29.8703369,9.3344806-17.5849597,8.3106915-25.7752104,1.9271259-20.2949702-8.0698053,6.9255824-16.2600629,17.5247336-22.5834207,29.5090031-21.3187547,40.2888189-19.6927502,50.3459671-19.6927502,50.2857502,0,.0602169,0,0,0,0h0Z"/>
      <path class="st0" d="M150.1840626,146.2505614h0q.0602261,0,0,0h0Z"/>
      <path class="st0" d="M150.1840626,146.2505614s0,.0602169,0,0c0,.0602169.0602261,0,0,0q.0602261,0,0,0Z"/>
      <path class="st3" d="M150.2442887,146.1903353q0,.0602261,0,0,0,.0602261,0,0c.1806692-.1204431,1.8066737-1.7464475,4.456458-4.9382395,4.0349027-4.7575703,10.5389297-12.9478279,18.2474058-24.6309805-19.7529672,18.9700734-22.5231946,28.6658832-22.7038638,29.56922Z"/>
      <path class="st2" d="M92.7920654,119.8731242c-14.3329416-3.0713489-28.1841063-.6624507-38.6025929,6.0824717-8.190253,5.2995779-.9635584,17.8258504,20.0540795,22.2823085,46.7928459,9.9367051,73.8327247-1.3851183,75.2780691-1.9873429-1.2044491-.2408861-20.2949656-4.6973534-48.960858-24.5707636-2.4691243-.6022246-5.0586872-1.2044491-7.7686977-1.8066737Z"/>
      <path class="st1" d="M149.5216211,146.2505614h.0602261-.0602261c.0602169,0,0,0,0,0Z"/>
      <path class="st1" d="M126.8779742,116.6211153c-4.9984656-4.8177964-11.1411542-10.2378174-18.608735-16.2600629-11.382045-9.2140375-23.8480914-14.5738323-34.5676903-15.2965046-8.3709222-.6022246-5.6006902,11.3218188,11.1411542,24.8718713,5.4802425,4.456458,10.7195943,8.3709176,15.7180599,11.8036049,26.076325,6.4438009,38.7832575,14.5136154,44.5646169,19.6325241-4.0349027-4.8178056-10.5389297-13.008054-18.2474058-24.7514328Z"/>
      <path class="st3" d="M145.12538,141.3123219c-5.8415763-5.1189087-18.5485181-13.188714-44.5646169-19.6325241,28.6658924,19.9336364,47.7564089,24.3298683,48.960858,24.5707636h.0602261c-.1806692-.1806692-1.8066828-1.8066737-4.4564672-4.9382395Z"/>
      <path class="st0" d="M107.3056762,66.4558081c-6.3233578-5.4802425-7.4073638,2.7100105,1.9271167,20.2949656,6.2029147,11.7433788,12.2251603,21.6198578,17.6451812,29.8703415,19.6927411,18.9700734,22.4629777,28.6658924,22.7038638,29.5692292v.0602261h0v.0602261s1.6862306-9.9969313-19.6325241-50.2857502c-6.3835748-12.0445048-14.5738232-22.5834345-22.6436377-29.5692384Z"/>
      <path class="st0" d="M149.581838,146.2505614h0Z"/>
      <path class="st0" d="M149.581838,146.2505614s0,.0602169,0,0c0,.0602169,0,0,0,0h0Z"/>
      <path class="st3" d="M149.581838,146.1903353c-.2408861-.9033368-2.9508966-10.6593728-22.7038638-29.56922,7.7084761,11.7433788,14.2125031,19.9336364,18.2474058,24.6309805,2.6497844,3.191792,4.275798,4.8177964,4.456458,4.9382395q0,.0602261,0,0,0,.0602261,0,0Z"/>
    </g>
  </g>
</svg>